PathFileType	4	(X/Y/Z)	29_2_37_p0_0-266_filt_butterworth.trc
DataRate	CameraRate	NumFrames	NumMarkers	Units	OrigDataRate	OrigDataStartFrame	OrigNumFrames
59.0	59.0	6	27	m	59.0	133	266
Frame#	Time	RHip			RKnee			RAnkle			RBigToe			RSmallToe			RHeel			LHip			LKnee			LAnkle			LBigToe			LSmallToe			LHeel			Neck			Head			Nose			RShoulder			RElbow			RWrist			RThumb			RIndex			RPinky			LShoulder			LElbow			LWrist			LThumb			LIndex			LPinky			
		X1	Y1	Z1	X2	Y2	Z2	X3	Y3	Z3	X4	Y4	Z4	X5	Y5	Z5	X6	Y6	Z6	X7	Y7	Z7	X8	Y8	Z8	X9	Y9	Z9	X10	Y10	Z10	X11	Y11	Z11	X12	Y12	Z12	X13	Y13	Z13	X14	Y14	Z14	X15	Y15	Z15	X16	Y16	Z16	X17	Y17	Z17	X18	Y18	Z18	X19	Y19	Z19	X20	Y20	Z20	X21	Y21	Z21	X22	Y22	Z22	X23	Y23	Z23	X24	Y24	Z24	X25	Y25	Z25	X26	Y26	Z26	X27	Y27	Z27	
133	2.254237288135593	0.3318343369804433	0.5884293629662032	0.9609715062054576	0.3072965499717192	0.6872823618249654	1.3418922465766576	0.27792373049662106	0.824359232617946	1.7423125370638504	0.2825747194641035	0.6428958507498632	1.78046907274597	0.32792189258991616	0.6634091769591567	1.7712808309263544	0.2629755748614494	0.8710453634116322	1.7849478856978733	0.13089503857600907	0.6175848101922847	0.9408845068397447	0.1198195238283203	0.6962582259319534	1.3248793667367387	0.0968238478822421	0.7905831342183683	1.7255483188869927	0.12701182568400357	0.6259707475951662	1.7618350719806264	0.064583926756239	0.6687765562160729	1.7612746571133084	0.10900099091338916	0.8234983777394926	1.7632590227152134	0.27857800307026376	0.37751574470949784	0.4661275878365678	0.31002272645783696	0.2339101186238364	0.24061127847002797	0.2885617579075396	0.22438341782712473	0.38197773895098713	0.4258437601346923	0.4278342364596994	0.5331097332837363	0.48604027038301084	0.44587012207871946	0.7736539558003189	0.4758297616397691	0.4323939563514835	1.0296065553427487	0.4179220449273759	0.38255587952150666	1.1291256585240137	0.43688543331737884	0.3924710578893985	1.148783331786086	0.48568973131183885	0.43611736689553326	1.14877629275202	0.12076573812593173	0.43968694639808237	0.4969296218886879	0.039797354470904454	0.6031202809584736	0.6951371854241106	0.012837027856331205	0.6712056721943884	0.9068793186004407	0.040894143133533734	0.7283297372586313	1.0140133935886235	0.004966954196434467	0.7311243771571138	1.0240870684027097	-0.021993277260767878	0.8020189880984383	1.0215438003833357
134	2.2711864406779663	0.33302203302846606	0.5892927448550251	0.9575653554358101	0.30668479535833637	0.6773072892044718	1.3372873292854373	0.2776425303869939	0.8249239030320401	1.7435942114720995	0.28261180148326	0.6375209038600428	1.7770955565290734	0.32761287191385785	0.6615613705374651	1.7705780473437231	0.26296604600269863	0.8709359780803694	1.7854897166145085	0.13083820871584861	0.6165751183975178	0.93834629479904	0.11961630823263547	0.6924481832976906	1.3235364649899315	0.09690520248163398	0.7908092683077936	1.7260066707070494	0.12747062778974266	0.619224653636682	1.7583199467898858	0.06437765650168314	0.6690278100765311	1.7610330088855657	0.10890803030562152	0.823349710867402	1.7629755635085849	0.2801743572043512	0.381058562935192	0.4581361835737029	0.3103799083132263	0.24448222174852066	0.23505206161543124	0.29012429716174315	0.23303861835848377	0.37232821149476975	0.42533538520038683	0.4296796542166999	0.5288807105697324	0.4899654654582748	0.45325578608051886	0.7702305492789627	0.47707537875005435	0.43303747351586763	1.0223724751690186	0.42189852360802327	0.3831439477371103	1.1254487469944827	0.4444429333651775	0.40458049878456576	1.1480496934367437	0.48972079245542527	0.43556398362949494	1.1459975303349468	0.12137197178727713	0.43881891328286454	0.4944641360203396	0.03868916975215336	0.601776143891976	0.6937377222299879	0.010429543985860393	0.6633334745680293	0.9063392607658733	0.033769950605101386	0.7120940637255333	1.012672093354285	-0.0014984335296009195	0.7286258211113893	1.0261046995062926	-0.02500017495031966	0.7842631657532877	1.019339069745385
135	2.288135593220339	0.3345869171043487	0.5936480791300188	0.9543770004556049	0.3059297903748716	0.6705033387996724	1.3339151159369653	0.277631692719828	0.8258316063710666	1.7444088556264266	0.2835028246680974	0.6331608148132435	1.773399727997667	0.3268485705974169	0.6577818122414856	1.7690408775606468	0.26297998765879826	0.8708699868759526	1.7858577541921168	0.13071073865687205	0.6157662212181362	0.9361132294994325	0.11949252940946103	0.6911460409341526	1.322466892268355	0.09692130613692773	0.7907609880823325	1.7259568207657783	0.12716998753074207	0.6119072373275324	1.7537507237164083	0.06431735928707773	0.6688323992779988	1.760618991419252	0.10894760457472631	0.8236266177528166	1.7628038277696396	0.28222790058913455	0.3883851205117465	0.45217132848071445	0.3112263122557691	0.25420393993177326	0.2290828320148318	0.2911829071121241	0.2421907734892134	0.3644133121050172	0.424135951227012	0.43195190427276453	0.5262536599685632	0.4939796521430877	0.46213895095815216	0.7694559865417147	0.478038093411212	0.4347449170279873	1.0163280344003367	0.4245032651833458	0.38725701107790533	1.122994340982508	0.4509605349101905	0.41652254692257057	1.1471912672797573	0.4916690955977002	0.4368710014097684	1.1441396674133373	0.12262301917361174	0.43857983929620226	0.49270138910668826	0.03801129338429752	0.6013373001348811	0.692556474563473	0.008498300065852275	0.6582294568694117	0.9061472412601045	0.026471785229345186	0.6897665365565395	1.0085349743974843	-0.00679919638070278	0.7233841953130297	1.0265776603138128	-0.027936477563480923	0.7669555728701017	1.0169140820871656
136	2.305084745762712	0.3365567161614146	0.6008584023665118	0.9523360811703545	0.305293536762534	0.6688213419866388	1.3328773054181668	0.2776479415559443	0.8260281102570772	1.7446321858601053	0.28531120866128656	0.6311123328449769	1.7715613819754608	0.3258609901816107	0.6531946726093892	1.7671274099380478	0.2630061478913484	0.8706650625694212	1.7859831846636318	0.13055166996280998	0.6151286626520773	0.933867615649266	0.11946178299964023	0.6914921992393663	1.3220079545174468	0.09689502495616222	0.7906545635196366	1.7258583404540442	0.12659607860131733	0.6071462209269263	1.7505609819482069	0.06493004496510396	0.6672915260316128	1.7598241901848066	0.10961768402882964	0.8253486436982964	1.762952666577095	0.284326521661592	0.39881371159593215	0.4470639901727963	0.3116346704453125	0.2636399462651614	0.22299375136775576	0.2926370102033317	0.25127556081671254	0.35826572528362405	0.42283190389799863	0.4358730959267021	0.5243588751911716	0.4972126375441623	0.47091932636331335	0.7700376019713746	0.4793862062132234	0.4359078016067869	1.0117620932367977	0.4263538091318355	0.3930139131748861	1.1210811532063558	0.4568504891030818	0.424653604712523	1.1457741515840885	0.4937822226710129	0.4368348706349441	1.1414206926011563	0.12426625685747503	0.4390418496820925	0.4904432869733401	0.037331040702684164	0.6009731324052969	0.6920487366116965	0.007398876217098308	0.6558895407288756	0.9061910152062294	0.02131757807220997	0.6678618587866827	1.0032592759482106	-0.010269323269499904	0.7149957375649393	1.0261117760090077	-0.03095351454293229	0.7532290737680527	1.0148035760689533
137	2.3220338983050848	0.3380699514759253	0.6068013381003203	0.9511177241741982	0.3053999499628001	0.6679737750929318	1.3320723033056996	0.2773653970512907	0.8243677346869169	1.7444283964572478	0.2869707954557169	0.6302765810991094	1.7714498157464234	0.3251227580231432	0.6498642124459425	1.765711676429069	0.2629951197559366	0.8703138400552912	1.7859061339696876	0.13040814870086836	0.6148747491342903	0.9316290538394599	0.11949206970830428	0.6921922407554149	1.3219456030553114	0.09684779619393245	0.790576007064014	1.7258720105748973	0.12626300512510996	0.6055414194498367	1.7494280518936456	0.06660401442365134	0.6634089340480112	1.7582724373955148	0.11133659827780645	0.8295511075155162	1.7636292804990297	0.2856770243546992	0.410525711536499	0.44230101296576657	0.31165141719783934	0.2716532074500682	0.2177552651067839	0.29509148607779395	0.25740896584147865	0.3539746384666448	0.42268815347966915	0.44042379397302656	0.5224313165193719	0.4991146089356293	0.47707622719119264	0.7704836679447672	0.48106912507100275	0.4356726055108439	1.0081619541036901	0.42784806812536513	0.3985933689787665	1.119438933627008	0.46277110968880786	0.42593653965513767	1.1435783459947981	0.4984626104645434	0.43048759249077995	1.1356767027934636	0.1256777035367393	0.44078145241137895	0.486643341671073	0.036510251346519446	0.5994797520430167	0.6920763378592208	0.006141443369357296	0.6550773026136372	0.9061908770084489	0.01876487503644267	0.6524841184575338	0.9991929746177155	-0.01255160954316385	0.7053299319130694	1.0258064041651573	-0.03430035517258864	0.742495495966222	1.0127028364855961
138	2.3389830508474576	0.3382448045356453	0.607665798180718	0.9500560773466924	0.3064837531309112	0.6622144971210479	1.3290100185088172	0.27661543748810413	0.82015319753824	1.7437500690795487	0.28765467011286777	0.6295943157507824	1.77120916078912	0.3248307973052388	0.6485748791901522	1.765150343318299	0.26293635753776545	0.8699461779702198	1.785657471283612	0.1302992022523323	0.6150284126485925	0.9296741487658504	0.1194690734914177	0.6926817178078869	1.3224874164075304	0.09683834788566067	0.7905123659327633	1.7258454575701716	0.12620296245043355	0.6056445091307173	1.7494654699662402	0.06885983162681421	0.657989644828132	1.756483772309478	0.11363806073158977	0.8352573744961187	1.7648845812641052	0.286492679831749	0.42154056852913174	0.4382984117417462	0.3119920522035324	0.2783528567383178	0.21375300915597018	0.2981465451470199	0.2598787798970863	0.35103679888455963	0.42437801527017394	0.4450122709616893	0.5206196621583027	0.5000264327827451	0.48067358028611823	0.7699887022335107	0.48265299687590646	0.43472477730492737	1.005538466579846	0.4293632918031802	0.4037202777983192	1.117956938034272	0.46850463993567976	0.42119707489666636	1.1408919905999888	0.5060488969483224	0.4169944104873437	1.1275065271755405	0.12649239166393547	0.44473606933979126	0.48111533576091015	0.035801264848475484	0.5960604739500976	0.6923463784044191	0.0035720146021912874	0.6546297877321521	0.9059936304392264	0.017614628324491267	0.644722587735253	0.9974838834282158	-0.014733637600091842	0.6971991451008721	1.0261196338511187	-0.03793200473386204	0.7337780686865035	1.0101254794571313
